<?xml version="1.0" encoding="utf-8"?>
<!-- Generator: Adobe Illustrator 28.3.0, SVG Export Plug-In . SVG Version: 6.00 Build 0)  -->
<svg version="1.1" id="Layer_1" xmlns="http://www.w3.org/2000/svg" xmlns:xlink="http://www.w3.org/1999/xlink" x="0px" y="0px"
	 viewBox="0 0 601.04 673.83" style="enable-background:new 0 0 601.04 673.83;" xml:space="preserve">
<style type="text/css">
	.st0{fill:#669999;}
</style>
<g>
	<g>
		<path class="st0" d="M8.94,339.74c0-42.16-0.23-84.32,0.08-126.48c0.22-29.76,14.32-51.7,39.79-66.49
			C118.5,106.31,188.26,65.94,257.96,25.5c28.77-16.69,57.39-16.68,86.19,0.07C414.53,66.51,485,107.3,555.4,148.21
			c25.89,15.04,37.63,38.04,37.61,67.59c-0.03,83.33,0.27,166.66-0.17,249.99c-0.16,29.59-14.56,51.62-40.11,66.36
			c-47.74,27.54-95.52,54.98-143.22,82.58c-20.61,11.92-41.06,24.11-61.56,36.22c-11.57,6.83-23.69,12.06-37.14,13.89
			c-20.49,2.78-38.77-3.38-56.17-13.48c-68.1-39.55-136.13-79.21-204.37-118.5c-27.85-16.03-41.72-39.51-41.5-71.64
			c0.21-31.33,0.04-62.66,0.04-94c0-9.16,0-18.32,0-27.49C8.85,339.74,8.9,339.74,8.94,339.74z M578.52,339.22
			c0-41.34,0.02-82.67-0.01-124.01c-0.02-25.71-11.15-45.26-33.32-58.11c-70.46-40.83-141.03-81.46-211.55-122.18
			c-21.36-12.33-42.66-12.21-63.96,0.16c-21.74,12.63-43.49,25.25-65.26,37.83c-48.29,27.92-96.62,55.79-144.89,83.75
			c-23.2,13.44-34.75,33.61-34.74,60.48c0.04,80.67,0.08,161.35-0.02,242.02c-0.03,27.29,11.62,47.62,35.18,61.25
			c69.19,40.02,138.45,79.91,207.49,120.18c23.45,13.68,45.93,13.33,69.31-0.33c60.38-35.29,121.08-70.04,181.65-105
			c8.51-4.91,16.95-9.95,25.52-14.74c23.23-12.97,34.64-32.74,34.61-59.29C578.49,420.56,578.52,379.89,578.52,339.22z"/>
		<path class="st0" d="M560.38,428.36c0,15.78,0.01,30.07-0.01,44.37c0,1.83-0.44,3.71-0.14,5.48c1.22,7.21-2.29,11.32-8.23,14.81
			c-63.14,37.18-126.13,74.61-189.34,111.66c-6.47,3.79-13.91,6.71-21.27,8.05c-16.91,3.09-29.33-6.27-32.34-23.21
			c-0.58-3.26-0.85-6.62-0.86-9.93c-0.06-32.84-0.14-65.67,0-98.51c0.11-25.16,0.26-50.33,0.88-75.48
			c0.69-28.11,8.87-53.69,29.34-73.74c8.59-8.41,18.62-15.7,28.94-21.92c43.35-26.15,87.07-51.68,130.59-77.55
			c4.56-2.71,8.79-6.02,12.95-9.32c18.56-14.74,44.53-4.96,48.11,18.39c1.08,7.04,1.4,14.25,1.43,21.39
			c0.09,20.49-0.28,40.99-0.19,61.48c0.03,5.6-1.8,9.28-6.77,12.16c-14.53,8.42-28.83,17.26-44.31,26.59c0-2.7,0-4.4,0-6.1
			c0-18.5,0.03-37,0-55.51c-0.03-13.16-3.45-15.21-14.71-8.63c-40.55,23.69-81.05,47.46-121.6,71.15
			c-9.23,5.39-13.41,13.43-13.39,23.99c0.06,47.01,0.03,94.01,0.07,141.02c0.01,12.99,3.55,15.06,14.86,8.43
			c50.58-29.64,101.1-59.36,151.65-89.05C537.06,441.93,548.12,435.51,560.38,428.36z"/>
		<path class="st0" d="M293.16,633.7c-10.49-6.06-19.98-11.48-29.41-17.01c-55.86-32.8-111.74-65.56-167.55-98.46
			c-27.05-15.94-45.96-38.34-52.59-69.61c-2.02-9.54-2.88-19.47-3.01-29.24C40.08,379.4,40,339.4,39.84,299.4
			c-0.07-18.15-0.54-36.32,0.26-54.44c0.5-11.43,5.4-21.33,16.55-26.64c8.78-4.18,17.84-3.3,26.06,0.88
			c13.05,6.62,25.73,14.01,38.37,21.39c38.97,22.75,77.93,45.54,116.75,68.54c35.27,20.9,53.34,52.12,54.02,93.07
			c0.41,24.99,0.08,49.99,0.08,75.63c-1.61-0.79-2.92-1.32-4.12-2.04c-13.29-7.95-26.43-16.17-39.92-23.77
			c-5.37-3.03-6.78-7.19-6.76-12.69c0.05-17.34-0.23-34.68,0.11-52c0.24-11.94-4.8-20.14-15-26.09
			c-39.7-23.16-79.26-46.57-118.9-69.84c-2.72-1.6-5.56-3.03-8.49-4.2c-3.93-1.57-6.58,0.01-7.39,4.08
			c-0.51,2.59-0.63,5.29-0.63,7.94c-0.03,42.67-0.02,85.34-0.02,128.01c0,4.66-0.12,9.32,0,13.97c0.27,10.28,5.46,17.51,14.13,22.59
			c59.48,34.86,118.91,69.81,178.49,104.51c7.14,4.16,10.35,9.03,9.93,17.64C292.62,601.39,293.16,616.91,293.16,633.7z"/>
		<path class="st0" d="M419.05,106.38c-15.55,8.81-30.41,17.35-45.41,25.64c-4.28,2.37-8.72,1.3-12.85-1.05
			c-14.76-8.4-29.71-16.47-44.23-25.27c-11.79-7.14-22.81-7.09-34.69-0.11c-38.32,22.52-76.87,44.67-115.33,66.97
			c-2.01,1.17-4.04,2.34-5.92,3.72c-6.45,4.73-6.61,8.85,0.25,13.1c12.02,7.46,24.35,14.42,36.59,21.53
			c28.37,16.46,56.84,32.75,85.09,49.4c11.19,6.6,21.73,6.53,32.95,0.09c58.34-33.49,116.86-66.69,175.15-100.28
			c7.67-4.42,14-4.95,21.66-0.05c11.35,7.26,23.33,13.52,35.04,20.21c1.41,0.81,2.8,1.67,4.79,2.86
			c-14.55,8.41-28.44,16.6-42.48,24.53c-52.92,29.88-105.74,59.94-158.89,89.4c-35.15,19.48-70.89,18.84-105.78-0.72
			c-49.67-27.84-99.02-56.25-148.37-84.68c-5.68-3.27-11.06-7.58-15.49-12.41c-9.96-10.85-9.52-24.27,0.77-34.94
			c3.66-3.79,7.87-7.32,12.43-9.94c50.82-29.18,101.59-58.47,152.73-87.09c33.89-18.97,68.69-18.09,102.75-0.42
			c22.74,11.8,44.7,25.11,67.01,37.75C417.37,104.96,417.84,105.44,419.05,106.38z"/>
	</g>
</g>
</svg>
